HIERARCHY
ROOT Hips
{
	OFFSET -240.519104 89.812180 402.348785
	CHANNELS 6 Xposition Yposition Zposition Zrotation Yrotation Xrotation 
	JOINT LeftUpLeg
	{
		OFFSET 0.103456 1.857834 10.548498
		CHANNELS 3 Zrotation Yrotation Xrotation
		JOINT LeftLeg
		{
			OFFSET 43.499992 -0.000040 -0.000011
			CHANNELS 3 Zrotation Yrotation Xrotation
			JOINT LeftFoot
			{
				OFFSET 42.372192 0.000015 -0.000003
				CHANNELS 3 Zrotation Yrotation Xrotation
				JOINT LeftToe
				{
					OFFSET 17.300003 0.000002 0.000015
					CHANNELS 3 Zrotation Yrotation Xrotation
					End Site
					{
						OFFSET 0.000000 0.000000 0.000000
					}
				}
			}
		}
	}
	JOINT RightUpLeg
	{
		OFFSET 0.103455 1.857831 -10.548502
		CHANNELS 3 Zrotation Yrotation Xrotation
		JOINT RightLeg
		{
			OFFSET 43.500038 -0.000019 0.000008
			CHANNELS 3 Zrotation Yrotation Xrotation
			JOINT RightFoot
			{
				OFFSET 42.372265 -0.000019 0.000008
				CHANNELS 3 Zrotation Yrotation Xrotation
				JOINT RightToe
				{
					OFFSET 17.299984 -0.000007 0.000027
					CHANNELS 3 Zrotation Yrotation Xrotation
					End Site
					{
						OFFSET 0.000000 0.000000 0.000000
					}
				}
			}
		}
	}
	JOINT Spine
	{
		OFFSET 6.901969 -2.603726 -0.000003
		CHANNELS 3 Zrotation Yrotation Xrotation
		JOINT Spine1
		{
			OFFSET 12.588097 -0.000010 0.000004
			CHANNELS 3 Zrotation Yrotation Xrotation
			JOINT Spine2
			{
				OFFSET 12.343201 0.000004 0.000005
				CHANNELS 3 Zrotation Yrotation Xrotation
				JOINT Neck
				{
					OFFSET 25.832905 0.000013 -0.000010
					CHANNELS 3 Zrotation Yrotation Xrotation
					JOINT Head
					{
						OFFSET 11.766600 -0.000021 0.000000
						CHANNELS 3 Zrotation Yrotation Xrotation
						End Site
						{
							OFFSET 0.000000 0.000000 0.000000
						}
					}
				}
				JOINT LeftShoulder
				{
					OFFSET 19.745911 -1.480368 6.000092
					CHANNELS 3 Zrotation Yrotation Xrotation
					JOINT LeftArm
					{
						OFFSET 11.284128 -0.000006 -0.000023
						CHANNELS 3 Zrotation Yrotation Xrotation
						JOINT LeftForeArm
						{
							OFFSET 33.000057 -0.000001 0.000025
							CHANNELS 3 Zrotation Yrotation Xrotation
							JOINT LeftHand
							{
								OFFSET 25.200012 0.000014 0.000015
								CHANNELS 3 Zrotation Yrotation Xrotation
								End Site
								{
									OFFSET 0.000000 0.000000 0.000000
								}
							}
						}
					}
				}
				JOINT RightShoulder
				{
					OFFSET 19.746101 -1.480364 -6.000078
					CHANNELS 3 Zrotation Yrotation Xrotation
					JOINT RightArm
					{
						OFFSET 11.284142 -0.000002 -0.000011
						CHANNELS 3 Zrotation Yrotation Xrotation
						JOINT RightForeArm
						{
							OFFSET 33.000099 0.000007 0.000015
							CHANNELS 3 Zrotation Yrotation Xrotation
							JOINT RightHand
							{
								OFFSET 25.199781 0.000143 0.000408
								CHANNELS 3 Zrotation Yrotation Xrotation
								End Site
								{
									OFFSET 0.000000 0.000000 0.000000
								}
							}
						}
					}
				}
			}
		}
	}
}
MOTION
Frames: 10
Frame Time: 0.033333
318.4007869999999 89.581902 -870.403595 92.01481180792739 1.3952657503589863 -48.10468736431581 169.231529 -14.175797999999997 -177.655051 -71.370737 6.184364000000001 -6.766093000000001 67.95599 0.95165200000001 -10.227055 21.454558 0.003110000000007287 1.400000000000002e-05 150.596327 4.626294000000007 -170.73579600000002 -34.856692 0.12224300000000671 -3.222016 69.59277 2.2814189999999983 -0.02164699999999939 21.454553 -0.0030999999999931915 -1.999999999999869e-06 6.466835 -0.33553599999999933 -0.580375 2.924232 -0.6565360000000022 -1.16892 2.606182 -0.6637179999999913 -1.1649309999999997 -4.575057999999999 7.312327000000006 17.720018999999997 -20.936569000000002 -1.8683210000000003 20.722661 169.136398 -78.06679499999997 9.610964 6.732528999999997 43.76219300000002 34.38107499999999 -103.37060300000002 -1.7011999999999954 3.0635180000000006 -10.980423 -2.285940999999991 13.513154 -148.38428899999997 84.89113000000008 33.481184000000006 30.535382000000006 -52.133546 -42.19894800000001 -120.48030199999998 -4.13707999999999 -3.3430159999999995 -5.171903999999999 9.471769999999998 -6.489225000000001 
317.174896 86.74088300000001 -876.571197 90.5888928928643 -0.13067560075792792 -48.99787673816817 165.571435 -13.981399999999997 -173.352551 -83.369241 5.361086000000004 -6.065115 70.09933099999999 0.8371269999999997 -9.635269 21.454556999999998 0.003113000000006427 2.2999999999999986e-05 153.036385 2.9006940000000063 -169.364963 -43.01773699999999 0.09835300000000803 -2.789565 85.103529 1.204471000000009 -3.4680939999999993 21.454555 -0.0030869999999926785 0.0 7.041562000000002 -0.2126550000000017 -0.22978800000000002 4.071154 -0.41713700000000176 -0.4668300000000002 3.7530729999999997 -0.42009199999999414 -0.46430899999999997 -2.1425780000000003 4.488006000000004 17.800545 -24.787370000000003 -0.9744809999999992 19.879535 170.952217 -77.87466799999999 7.768797000000005 7.183785999999998 45.310321 31.973335000000002 -96.976317 -2.2118099999999967 2.813767 -12.030981000000002 -3.128634000000002 16.476519999999997 -144.942543 84.3722070000002 36.968447000000005 25.253238000000007 -56.15562300000002 -36.86541000000001 -118.794789 -3.979976000000001 -3.284965 -5.794531999999999 8.905417 -7.418166999999997 
316.21310399999993 84.34573400000001 -882.4242859999999 90.98705860439017 -1.8597262602041396 -50.3448573763461 159.43341700000002 -14.21539199999999 -169.603023 -93.875377 4.709778 -4.742095999999999 71.542263 0.7565429999999983 -7.372627999999997 21.454563 0.003110999999998519 1.9000000000000065e-05 153.674475 -0.954298000000002 -169.902308 -50.74598699999999 0.02683300000000719 -1.5511190000000001 92.76364000000001 0.32099500000000863 -5.3944920000000005 21.454555 -0.003081999999998353 2.000000000000042e-06 7.554472999999999 0.3640290000000055 0.34782399999999997 5.098398 0.7125310000000019 0.7112449999999999 4.780304 0.7166739999999971 0.7069280000000001 -3.277427 1.1025000000000078 17.745158 -25.308104999999998 -0.006095999999995 18.574879 178.403107 -76.17018799999992 0.2146289999999992 7.262041999999998 47.592106 29.010708999999995 -89.331846 -2.8214779999999946 2.5143989999999996 -15.953321000000006 -10.606306999999992 19.861000000000004 -138.98055300000001 83.35798499999993 43.02541099999997 13.459616000000008 -60.64516800000002 -27.388422000000013 -113.14510900000003 -2.7883789999999946 -3.130405 -7.588665 9.105353000000003 -13.190047999999999 
314.76361099999997 82.786423 -887.98529 90.94970435301171 -1.0200091186113165 -51.95661565466714 151.853506 -10.522290000000003 -168.93697 -100.156501 4.604185000000002 -4.722546000000001 73.83627100000001 1.610331 -5.08184 21.454567999999995 0.003110999999998519 1.599999999999987e-05 154.26082 -1.1618019999999922 -169.161287 -56.14155300000001 0.8392220000000012 -2.4913159999999994 98.010592 0.9587079999999969 -7.7366220000000006 21.454550999999995 -0.003090999999995772 -9.999999999999896e-07 7.684947000000003 0.4679310000000085 0.7861530000000001 5.36346 0.8992059999999978 1.5930590000000002 5.045456999999999 0.9086700000000024 1.5875959999999998 -5.201373 -0.8905979999999937 17.884040999999996 -24.194302000000004 -0.4343819999999975 18.287110999999996 -177.257411 -74.04813 -4.189328999999999 13.062447999999998 50.334317999999996 28.887041999999997 -84.26489800000002 -3.806677999999999 2.3588299999999998 -16.743961000000002 -16.08060499999999 19.063251000000005 -158.976546 84.613948 22.808613999999977 1.1066770000000001 -63.002559999999995 -15.28762 -107.958496 -1.7987719999999943 -2.9753810000000005 -8.686030999999998 9.568423000000001 -20.366574 
313.135498 82.536423 -893.846405 89.99296643690654 -0.4856608518390135 -52.54631399318792 145.873662 -5.156613000000001 -170.384984 -100.463203 4.570054000000005 -5.913273000000001 75.558749 2.778656000000009 -4.310663000000001 21.454563 0.003113999999997659 1.099999999999999e-05 158.541668 -0.35950199999999316 -166.899224 -56.83646999999999 1.4463520000000016 -4.032572 100.823298 1.9674640000000025 -10.256294 21.454557 -0.0030860000000014465 1.0000000000000415e-06 7.932184 0.24852200000000538 1.3836620000000002 5.856788000000001 0.4270890000000022 2.7780450000000005 5.539096000000002 0.44370800000000354 2.7754170000000005 -6.408898 -2.5469189999999995 17.11738 -24.792118 -0.0028739999999901423 16.817751 -171.136072 -73.77554399999997 -10.468920999999995 21.230767 51.52220999999999 32.67014 -85.890175 -3.291384999999992 2.39449 -17.50872 -14.912971999999998 19.137673 -173.24671 85.86070999999995 8.424388000000013 -6.910162000000006 -64.91930900000001 -6.798332999999997 -108.70461199999998 -1.9068770000000006 -3.0003370000000005 -9.488664000000002 8.257406000000005 -22.615313 
311.66189599999996 83.414268 -900.16391 89.96136819441179 0.22307885936331273 -52.85871240101504 140.758287 -0.6044039999999976 -172.91393 -95.18945000000001 4.425071999999997 -6.236263 76.173733 2.750362000000001 -5.47054 21.454555 0.003110999999998519 1.9000000000000065e-05 163.961232 -1.7579049999999907 -164.520146 -53.224249 0.6597700000000037 -4.695215 100.58769000000001 2.265265000000004 -11.997223999999996 21.454555 -0.0030869999999926785 9.99999999999914e-07 7.832035000000002 -0.042083999999993654 2.31733 5.647326 -0.19656199999999374 4.6298319999999995 5.330338 -0.16875899999999328 4.6309249999999995 -6.386489 -3.4155159999999958 15.466052000000001 -26.130032999999997 0.6006470000000019 14.640076999999994 -165.80351099999996 -74.59345899999998 -15.940400000000018 28.202336000000006 49.469981000000004 40.344001000000006 -89.821912 -2.856458000000002 2.538687 -18.819649 -14.851783999999999 19.487946999999995 -174.03242800000004 86.72774799999982 7.641472999999974 -10.818721000000005 -65.90142199999997 -3.654221999999997 -112.60019 -2.9583039999999925 -3.0954660000000005 -9.795286 10.127850000000004 -17.226438999999996 
310.40978999999993 85.22078699999999 -907.209991 90.05192921939424 0.7066903396648665 -53.42036268349799 138.486306 2.3406020000000085 -176.797534 -84.46709799999998 4.455553000000001 -5.400796999999999 75.426687 1.603414000000003 -7.454222999999999 21.454557 0.0031050000000002395 1.7999999999999923e-05 170.053624 -4.062104000000001 -163.94753 -47.563244999999995 0.983261000000009 -4.883121000000001 94.744368 1.531743000000003 -14.019157000000002 21.454545 -0.003097999999998006 9.706282611428368e-20 7.645825 -0.4354019999999976 3.317111 5.249663 -1.0198249999999953 6.611387999999999 4.933802000000001 -0.9801079999999971 6.617393 -6.937293000000002 -4.19904999999999 13.878144000000002 -25.442895 2.213163000000003 12.018729000000002 -161.230181 -75.17323299999995 -20.622252 33.18333299999999 46.31298199999998 46.631668999999995 -93.14568 -2.6154249999999912 2.6703800000000006 -18.975485 -14.36426499999999 19.132483 175.01563299999998 87.73903200000021 -3.34017100000003 -11.701665999999994 -66.95132399999999 -4.139682000000007 -116.172802 -3.776811999999996 -3.1901820000000005 -9.972952000000001 11.85671100000001 -12.784052000000003 
309.2842099999999 87.418457 -914.628204 89.96634708142672 1.2069258457411223 -53.856213842945735 138.709667 4.713599999999998 179.284611 -69.585626 3.942119000000004 -3.949981999999999 72.467044 -0.4155540000000019 -10.125549 21.454557 0.0031070000000081475 1.8000000000000007e-05 175.587921 -5.571896999999992 -162.645259 -42.034282000000005 0.7703620000000094 -6.739207999999999 83.776129 1.5018070000000034 -13.805957000000001 21.454553 -0.0030839999999935385 0.0 7.483116000000002 -0.9383680000000024 4.139624 4.880563000000002 -2.0491290000000033 8.237526999999998 4.565816 -1.999653999999996 8.249628000000001 -8.623173999999999 -4.583203999999992 12.579988 -23.889113000000002 4.368126000000003 9.535584 -157.52293200000003 -75.483002 -24.41309699999999 37.56704400000002 43.61467200000001 50.431525000000015 -95.384002 -2.587248 2.76866 -18.663251000000002 -13.008262999999994 18.727841 152.24714299999985 88.36074999999965 -26.14492400000015 -11.870205000000002 -67.799777 -6.029214999999999 -118.40479899999998 -4.208948999999997 -3.253254000000001 -10.051738 12.119240000000007 -12.065070000000002 
308.223785 89.480766 -922.0651849999999 90.23215124752137 2.0138720656332723 -53.896680395049415 140.397516 7.19250300000001 175.280658 -52.242067999999996 3.652970000000003 -1.803509999999999 67.738872 -3.2937079999999916 -12.602896 21.454561999999996 0.003112000000002473 1.9000000000000025e-05 178.920931 -6.035595999999996 -160.43001 -38.544824 -0.6776729999999931 -10.721285999999997 70.679241 5.836982000000006 -4.972377999999999 21.454557 -0.003089999999991818 -9.706282611355185e-20 7.181942000000001 -1.3945319999999966 4.694892000000002 4.231947 -2.958065999999993 9.339142000000002 3.9179860000000004 -2.9020020000000004 9.356627 -9.921838 -4.721030000000001 11.558669 -22.868340999999997 5.979821000000002 7.709452 -157.43393399999997 -75.45374899999996 -24.504654000000023 42.41295100000001 41.22124000000002 52.11631700000001 -96.914039 -2.493820999999992 2.8306749999999994 -17.414230000000007 -12.510825999999994 16.930724 128.79087999999945 88.5172089999998 -49.62664200000059 -12.442583000000006 -68.08115400000001 -8.423379999999998 -119.177594 -4.243466999999997 -3.282648 -8.886553999999999 10.743332 -13.356875 
307.36019899999997 90.663406 -929.400909 91.90470175258015 2.739061195854623 -53.743175878399256 142.012542 8.833796999999999 171.290653 -36.340691 3.441 1.3957430000000002 63.991324999999996 -6.4729649999999985 -13.510206 21.454557 0.003110000000007287 1.4000000000000117e-05 179.186734 -6.673096999999999 -159.923552 -38.901602000000004 -1.783741999999991 -13.71021 61.274481 14.738905999999998 10.840681 21.454558 -0.003089999999991818 1.9999999999999406e-06 6.624162 -1.500356999999995 5.042521000000001 3.0993519999999997 -3.1328859999999956 10.0474 2.786041 -3.072600999999992 10.065871999999999 -11.031470999999998 -5.0000349999999925 10.959737999999996 -21.348439000000003 7.001930000000008 6.5913330000000006 -158.125996 -75.11106400000003 -23.802188000000005 47.585815 39.275811 52.83030399999999 -97.74664600000001 -2.306246 2.8548619999999993 -16.416520000000002 -13.056853 13.781589000000004 118.34060899999973 87.98045200000047 -60.13370900000035 -12.73989900000001 -67.294159 -10.975074999999995 -119.398004 -4.242178999999994 -3.291755999999999 -6.8784 8.261582000000004 -14.499295 
